<svg id="Layer_1" data-name="Layer 1" xmlns="http://www.w3.org/2000/svg" xmlns:xlink="http://www.w3.org/1999/xlink" viewBox="0 0 1321.69 509.92"><defs><style>.cls-1{fill:#333254;}.cls-2,.cls-4{fill:#fff;}.cls-3{fill:#ffce33;}.cls-4{font-size:20.84px;font-family:MyriadPro-Regular, Myriad Pro;}.cls-5{letter-spacing:-0.01em;}.cls-6{letter-spacing:0.01em;}.cls-7{letter-spacing:0em;}.cls-8{letter-spacing:-0.01em;}.cls-9{letter-spacing:0em;}.cls-10{letter-spacing:0.02em;}.cls-11{letter-spacing:0.01em;}.cls-12{letter-spacing:0.01em;}.cls-13{letter-spacing:0em;}.cls-14{letter-spacing:0em;}.cls-15,.cls-17{fill:none;stroke:#c1272d;stroke-miterlimit:10;}.cls-15{stroke-width:1.5px;stroke-dasharray:7.9 7.9;}.cls-16{fill:#c1272d;}.cls-17{stroke-width:3px;}.cls-18{fill:#e6e6e6;}</style></defs><title>banner12</title><image width="600" height="200" transform="translate(25 7) scale(2.08 2.17)" xlink:href="../../../../../../Downloads/20%25%20Off%20(3).png"/><image width="667" height="374" transform="matrix(0.9, 0.07, -0.08, 0.84, 684.99, 150)" xlink:href="../../../../../../Downloads/image-removebg-preview%20(32).png"/><image width="500" height="500" transform="matrix(0.39, -0.07, 0.11, 0.49, 603, 217.24)" xlink:href="../../../../../../Downloads/image-removebg-preview%20(34).png"/><image width="500" height="500" transform="matrix(0.41, 0.06, -0.09, 0.46, 1115.61, 195)" xlink:href="../../../../../../Downloads/image-removebg-preview%20(35).png"/><path class="cls-1" d="M439,0c0,108.88-92.68,197.14-207,197.14S25,108.88,25,0" transform="translate(25 7)"/><path class="cls-1" d="M307,434.91c0-47.45,41.41-85.91,92.5-85.91S492,387.46,492,434.91" transform="translate(25 7)"/><text x="25" y="7"/><image width="600" height="200" transform="matrix(1.13, -0.13, 0.15, 1.01, 0, 132.49)" xlink:href="../../../../../../Downloads/20__Off__9_-removebg-preview.png"/><image width="600" height="200" transform="matrix(1.11, -0.04, 0.05, 1.01, 69, 26.89)" xlink:href="../../../../../../Downloads/20__Off__10_-removebg-preview.png"/><path class="cls-2" d="M73.87,101.74c-2.51,1.46-11.67-6.35-16.2-10.21C46,81.58,28.93,64.05,32.24,61c2.47-2.24,15.54,4.23,23.55,10.43A50.68,50.68,0,0,1,69.25,87.29C70,88.5,76.6,100.15,73.87,101.74Z" transform="translate(25 7)"/><path class="cls-2" d="M74.65,115.85c-1.13,2.44-13.76.46-20-.52-16.08-2.52-41.56-8.66-40.78-12.76.59-3.06,15.59-4.1,26.23-2.89a62.57,62.57,0,0,1,21.37,6.49C62.83,106.83,75.87,113.21,74.65,115.85Z" transform="translate(25 7)"/><path class="cls-2" d="M81.47,123c1.48,2.29-8.19,9.62-13,13.24C56.19,145.58,34.75,159,31.55,155.92c-2.38-2.3,6.05-13.12,13.78-19.59A59.38,59.38,0,0,1,64.52,125.9C66,125.38,79.85,120.52,81.47,123Z" transform="translate(25 7)"/><path class="cls-3" d="M364,48.3c-.73-1.32,3.4-7.43,5.44-10.45,5.26-7.79,14.48-19.49,16-17.87,1.13,1.21-2.35,9.47-5.63,14.75a37.16,37.16,0,0,1-8.3,9.42C370.9,44.68,364.83,49.72,364,48.3Z" transform="translate(25 7)"/><path class="cls-3" d="M370.67,52.06c0-1.29,5.84-5,8.73-6.87,7.45-4.75,19.69-11.5,20.18-9.73.37,1.31-5.88,7-10.71,10.29a39.75,39.75,0,0,1-10.54,5.18C377.6,51.17,370.68,53.45,370.67,52.06Z" transform="translate(25 7)"/><path class="cls-3" d="M371.66,56.53c.43-1.41,7.65-1.34,11.23-1.31,9.2.08,23.95,1.36,23.85,3.64-.08,1.69-8.38,3.45-14.42,3.65a36.84,36.84,0,0,1-12.49-1.81C379,60.46,371.19,58.05,371.66,56.53Z" transform="translate(25 7)"/><text x="25" y="7"/><text class="cls-4" transform="translate(117 330.24) scale(1.15 1)">Especially this <tspan class="cls-5" x="125.16" y="0">w</tspan><tspan x="140.29" y="0">ee</tspan><tspan class="cls-6" x="161.17" y="0">k</tspan><tspan class="cls-7" x="171.24" y="0">, get a dis</tspan><tspan class="cls-8" x="252.73" y="0">c</tspan><tspan x="261.95" y="0">ou</tspan><tspan class="cls-9" x="284.87" y="0">n</tspan><tspan x="296.36" y="0">t on </tspan><tspan x="0" y="25.01">pa</tspan><tspan class="cls-10" x="21.91" y="25.01">r</tspan><tspan class="cls-11" x="29.22" y="25.01">t</tspan><tspan x="36.31" y="25.01">y snacks and so</tspan><tspan class="cls-12" x="169.68" y="25.01">f</tspan><tspan x="175.99" y="25.01">t d</tspan><tspan class="cls-13" x="199.07" y="25.01">r</tspan><tspan class="cls-14" x="205.96" y="25.01">inks</tspan></text><text x="25" y="7"/><ellipse class="cls-15" cx="749" cy="94.77" rx="72.5" ry="68.23"/><path class="cls-16" d="M677.78,85.31v-.44c0-5.45,2.2-9.89,8.28-14.84,4-3.23,5.16-4.35,5.16-7.09S690,58.7,687.68,58.7c-2.75,0-3.75,1.88-4.13,4.61h-5.9c.4-5.41,3.58-9.92,10-9.92,7.21,0,9.68,4.8,9.68,9.49s-1.76,6.78-6.93,10.83c-3.46,2.71-4.85,4.5-5.33,5.91h13.3l-.76,5.69Z" transform="translate(25 7)"/><path class="cls-16" d="M723.25,69.44c0,8.62-2.46,16.44-10.79,16.44s-10.79-7.56-10.79-16.24,2.83-16.25,10.91-16.25C720.41,53.39,723.25,60.54,723.25,69.44ZM708,69.56c0,5.76.59,10.89,4.56,10.89s4.39-4.8,4.39-11-.66-10.66-4.33-10.66S708,62.77,708,69.56Z" transform="translate(25 7)"/><path class="cls-16" d="M752.05,62.38c0,5.36-2.78,9.08-7.59,9.08-4.56,0-7.57-3.1-7.57-9.07,0-5,2.68-9,7.61-9C748.93,53.39,752.05,56.46,752.05,62.38Zm-10.43,0c0,3.1,1,4.79,2.89,4.79s2.93-1.5,2.93-4.79-1.18-4.69-2.94-4.69S741.62,59.19,741.62,62.38Zm2.77,22.93,17.26-31.39h4.49L748.85,85.31Zm29.25-8.46c0,5.35-2.78,9.08-7.6,9.08-4.56,0-7.56-3.13-7.56-9.07,0-5,2.67-9,7.61-9C770.53,67.86,773.64,70.93,773.64,76.85Zm-10.43,0c0,3.1,1,4.78,2.89,4.78S769,80.14,769,76.85s-1.19-4.7-2.94-4.7S763.21,73.68,763.21,76.85Z" transform="translate(25 7)"/><path class="cls-16" d="M713,117.06c0,7-5,13.1-14.64,13.1-9.34,0-14.23-5.77-14.23-13s5.4-13,14.65-13C707.43,104.14,713,109.33,713,117.06Zm-22.23,0c0,4.94,2.56,8.67,7.83,8.67,5.73,0,7.76-4.07,7.76-8.58,0-4.78-2.31-8.54-7.86-8.54C693.07,108.59,690.72,112.12,690.72,117Z" transform="translate(25 7)"/><path class="cls-16" d="M718.59,104.51h20.78V109h-14.5v6.2h13.58v4.48H724.87v10.12h-6.28Z" transform="translate(25 7)"/><path class="cls-16" d="M744.15,104.51h20.78V109H750.44v6.2H764v4.48H750.44v10.12h-6.29Z" transform="translate(25 7)"/><path class="cls-17" d="M844.94,70c8.11-2.48,29.38-7.85,52.47-.59C918.33,76,937.67,92,941.59,112.17c.36,1.88,3.26,17.54-3.31,20.62-8.41,3.94-32.92-12.39-29.88-25.65,2.7-11.81,26.5-17.85,43.05-16.7a53.38,53.38,0,0,1,29.21,11.31" transform="translate(25 7)"/><polygon class="cls-16" points="1020.02 124.32 990.53 111.28 1004.23 107.92 1008.1 94.36 1020.02 124.32"/><ellipse class="cls-18" cx="1215" cy="51.29" rx="6" ry="5.21"/><ellipse class="cls-18" cx="1238" cy="51.29" rx="6" ry="5.21"/><ellipse class="cls-18" cx="1259" cy="51.29" rx="6" ry="5.21"/><ellipse class="cls-18" cx="1216" cy="78.21" rx="6" ry="5.21"/><ellipse class="cls-18" cx="1239" cy="78.21" rx="6" ry="5.21"/><ellipse class="cls-18" cx="1260" cy="78.21" rx="6" ry="5.21"/><ellipse class="cls-18" cx="1217" cy="105.13" rx="6" ry="5.21"/><ellipse class="cls-18" cx="1240" cy="105.13" rx="6" ry="5.21"/><ellipse class="cls-18" cx="1261" cy="105.13" rx="6" ry="5.21"/><ellipse class="cls-18" cx="1217" cy="131.19" rx="6" ry="5.21"/><ellipse class="cls-18" cx="1240" cy="131.19" rx="6" ry="5.21"/><ellipse class="cls-18" cx="1261" cy="131.19" rx="6" ry="5.21"/><ellipse class="cls-18" cx="1218" cy="158.11" rx="6" ry="5.21"/><ellipse class="cls-18" cx="1241" cy="158.11" rx="6" ry="5.21"/><ellipse class="cls-18" cx="1262" cy="158.11" rx="6" ry="5.21"/></svg>